<svg width="1200" height="630" viewBox="0 0 1200 630" xmlns="http://www.w3.org/2000/svg">
  <defs>
    <linearGradient id="bgGrad" x1="0%" y1="0%" x2="100%" y2="100%">
      <stop offset="0%" style="stop-color:#1e1b4b"/>
      <stop offset="50%" style="stop-color:#312e81"/>
      <stop offset="100%" style="stop-color:#4338ca"/>
    </linearGradient>
    <linearGradient id="logoGrad" x1="0%" y1="0%" x2="100%" y2="100%">
      <stop offset="0%" style="stop-color:#818cf8"/>
      <stop offset="100%" style="stop-color:#6366f1"/>
    </linearGradient>
    <linearGradient id="accentGrad" x1="0%" y1="0%" x2="100%" y2="0%">
      <stop offset="0%" style="stop-color:#a5b4fc"/>
      <stop offset="100%" style="stop-color:#818cf8"/>
    </linearGradient>
  </defs>
  
  <!-- Background -->
  <rect width="1200" height="630" fill="url(#bgGrad)"/>
  
  <!-- Decorative grid pattern -->
  <g opacity="0.1">
    <line x1="0" y1="100" x2="1200" y2="100" stroke="#a5b4fc" stroke-width="1"/>
    <line x1="0" y1="200" x2="1200" y2="200" stroke="#a5b4fc" stroke-width="1"/>
    <line x1="0" y1="300" x2="1200" y2="300" stroke="#a5b4fc" stroke-width="1"/>
    <line x1="0" y1="400" x2="1200" y2="400" stroke="#a5b4fc" stroke-width="1"/>
    <line x1="0" y1="500" x2="1200" y2="500" stroke="#a5b4fc" stroke-width="1"/>
    <line x1="200" y1="0" x2="200" y2="630" stroke="#a5b4fc" stroke-width="1"/>
    <line x1="400" y1="0" x2="400" y2="630" stroke="#a5b4fc" stroke-width="1"/>
    <line x1="600" y1="0" x2="600" y2="630" stroke="#a5b4fc" stroke-width="1"/>
    <line x1="800" y1="0" x2="800" y2="630" stroke="#a5b4fc" stroke-width="1"/>
    <line x1="1000" y1="0" x2="1000" y2="630" stroke="#a5b4fc" stroke-width="1"/>
  </g>
  
  <!-- Data flow decorative elements -->
  <g opacity="0.3">
    <circle cx="150" cy="150" r="40" fill="none" stroke="#818cf8" stroke-width="2"/>
    <circle cx="150" cy="150" r="60" fill="none" stroke="#818cf8" stroke-width="1"/>
    <circle cx="1050" cy="480" r="50" fill="none" stroke="#a5b4fc" stroke-width="2"/>
    <circle cx="1050" cy="480" r="80" fill="none" stroke="#a5b4fc" stroke-width="1"/>
  </g>
  
  <!-- Logo (DNA helix) -->
  <g transform="translate(100, 200)">
    <circle cx="70" cy="115" r="70" fill="url(#logoGrad)" opacity="0.9"/>
    <!-- DNA strands -->
    <path d="M45 60 Q30 85 45 115 Q60 145 45 170" stroke="#ffffff" stroke-width="6" fill="none" stroke-linecap="round"/>
    <path d="M95 60 Q110 85 95 115 Q80 145 95 170" stroke="#ffffff" stroke-width="6" fill="none" stroke-linecap="round"/>
    <!-- Cross bars -->
    <line x1="50" y1="72" x2="90" y2="72" stroke="#c7d2fe" stroke-width="4" stroke-linecap="round"/>
    <line x1="42" y1="92" x2="98" y2="92" stroke="#ffffff" stroke-width="4" stroke-linecap="round"/>
    <line x1="45" y1="115" x2="95" y2="115" stroke="#ffffff" stroke-width="5" stroke-linecap="round"/>
    <line x1="42" y1="138" x2="98" y2="138" stroke="#ffffff" stroke-width="4" stroke-linecap="round"/>
    <line x1="50" y1="158" x2="90" y2="158" stroke="#c7d2fe" stroke-width="4" stroke-linecap="round"/>
    <!-- Data points -->
    <circle cx="45" cy="60" r="5" fill="#ffffff"/>
    <circle cx="95" cy="60" r="5" fill="#ffffff"/>
    <circle cx="45" cy="170" r="5" fill="#ffffff"/>
    <circle cx="95" cy="170" r="5" fill="#ffffff"/>
    <circle cx="70" cy="115" r="8" fill="#ffffff" opacity="0.9"/>
    <circle cx="70" cy="115" r="4" fill="#4f46e5"/>
  </g>
  
  <!-- Title -->
  <text x="280" y="290" font-family="system-ui, -apple-system, sans-serif" font-size="72" font-weight="800" fill="#ffffff">Genesis</text>
  
  <!-- Tagline -->
  <text x="280" y="360" font-family="system-ui, -apple-system, sans-serif" font-size="28" fill="#c7d2fe">Privacy-Safe Synthetic Data Generation</text>
  
  <!-- Feature badges -->
  <g transform="translate(280, 400)">
    <rect x="0" y="0" width="140" height="36" rx="18" fill="#4f46e5" opacity="0.6"/>
    <text x="70" y="24" font-family="system-ui, sans-serif" font-size="14" fill="#ffffff" text-anchor="middle">🔒 Privacy First</text>
    
    <rect x="160" y="0" width="100" height="36" rx="18" fill="#4f46e5" opacity="0.6"/>
    <text x="210" y="24" font-family="system-ui, sans-serif" font-size="14" fill="#ffffff" text-anchor="middle">🤖 AutoML</text>
    
    <rect x="280" y="0" width="130" height="36" rx="18" fill="#4f46e5" opacity="0.6"/>
    <text x="345" y="24" font-family="system-ui, sans-serif" font-size="14" fill="#ffffff" text-anchor="middle">📊 Multi-Modal</text>
    
    <rect x="430" y="0" width="130" height="36" rx="18" fill="#4f46e5" opacity="0.6"/>
    <text x="495" y="24" font-family="system-ui, sans-serif" font-size="14" fill="#ffffff" text-anchor="middle">⚡ Production</text>
  </g>
  
  <!-- Code snippet preview -->
  <g transform="translate(700, 180)">
    <rect x="0" y="0" width="420" height="260" rx="12" fill="#1e1e2e" opacity="0.95"/>
    <rect x="0" y="0" width="420" height="36" rx="12" fill="#2d2d3a"/>
    <circle cx="20" cy="18" r="6" fill="#ff5f57"/>
    <circle cx="40" cy="18" r="6" fill="#febc2e"/>
    <circle cx="60" cy="18" r="6" fill="#28c840"/>
    <text x="210" y="23" font-family="monospace" font-size="12" fill="#888" text-anchor="middle">quickstart.py</text>
    
    <!-- Code lines -->
    <text x="20" y="65" font-family="monospace" font-size="13" fill="#c792ea">from</text>
    <text x="60" y="65" font-family="monospace" font-size="13" fill="#f8f8f2">genesis</text>
    <text x="125" y="65" font-family="monospace" font-size="13" fill="#c792ea">import</text>
    <text x="180" y="65" font-family="monospace" font-size="13" fill="#82aaff">auto_synthesize</text>
    
    <text x="20" y="95" font-family="monospace" font-size="13" fill="#676e95"># Generate privacy-safe data</text>
    
    <text x="20" y="125" font-family="monospace" font-size="13" fill="#f8f8f2">synthetic = </text>
    <text x="115" y="125" font-family="monospace" font-size="13" fill="#82aaff">auto_synthesize</text>
    <text x="235" y="125" font-family="monospace" font-size="13" fill="#f8f8f2">(</text>
    
    <text x="40" y="155" font-family="monospace" font-size="13" fill="#f8f8f2">real_data,</text>
    
    <text x="40" y="185" font-family="monospace" font-size="13" fill="#ffcb6b">n_samples</text>
    <text x="120" y="185" font-family="monospace" font-size="13" fill="#89ddff">=</text>
    <text x="135" y="185" font-family="monospace" font-size="13" fill="#f78c6c">10000</text>
    
    <text x="20" y="215" font-family="monospace" font-size="13" fill="#f8f8f2">)</text>
    
    <text x="20" y="245" font-family="monospace" font-size="13" fill="#676e95"># Quality: 94% | Privacy: 99%</text>
  </g>
  
  <!-- Bottom tagline -->
  <text x="600" y="580" font-family="system-ui, sans-serif" font-size="18" fill="#a5b4fc" text-anchor="middle">pip install genesis-synth • MIT License • github.com/genesis-synth/genesis</text>
</svg>
